<svg width="32" height="31" viewBox="0 0 32 31" fill="none" xmlns="http://www.w3.org/2000/svg">
<path d="M24.9742 3.82471C25.6505 3.82471 26.2991 4.09337 26.7773 4.57158C27.2556 5.0498 27.5242 5.69841 27.5242 6.37471V24.2247C27.5242 24.901 27.2556 25.5496 26.7773 26.0278C26.2991 26.506 25.6505 26.7747 24.9742 26.7747H7.12422C6.44792 26.7747 5.79931 26.506 5.3211 26.0278C4.84288 25.5496 4.57422 24.901 4.57422 24.2247V6.37471C4.57422 5.69841 4.84288 5.0498 5.3211 4.57158C5.79931 4.09337 6.44792 3.82471 7.12422 3.82471H24.9742ZM24.3367 23.5872V16.8297C24.3367 15.7273 23.8988 14.6701 23.1193 13.8906C22.3398 13.1111 21.2826 12.6732 20.1802 12.6732C19.0965 12.6732 17.8342 13.3362 17.2222 14.3307V12.9155H13.665V23.5872H17.2222V17.3015C17.2222 16.3197 18.0127 15.5165 18.9945 15.5165C19.4679 15.5165 19.9219 15.7045 20.2567 16.0393C20.5914 16.374 20.7795 16.828 20.7795 17.3015V23.5872H24.3367ZM9.52122 10.9137C10.0893 10.9137 10.6341 10.688 11.0358 10.2863C11.4375 9.88463 11.6632 9.3398 11.6632 8.77171C11.6632 7.58596 10.707 6.61696 9.52122 6.61696C8.94974 6.61696 8.40167 6.84397 7.99758 7.24807C7.59349 7.65216 7.36647 8.20023 7.36647 8.77171C7.36647 9.95746 8.33547 10.9137 9.52122 10.9137ZM11.2935 23.5872V12.9155H7.76172V23.5872H11.2935Z" fill="white" fill-opacity="0.9"/>
</svg>
