<svg width="31" height="31" viewBox="0 0 31 31" fill="none" xmlns="http://www.w3.org/2000/svg">
<path d="M28.6378 7.64961C27.6561 8.09586 26.5978 8.38911 25.5013 8.52936C26.6233 7.85361 27.4903 6.78261 27.8983 5.49486C26.8401 6.13236 25.6671 6.57861 24.4303 6.83361C23.4231 5.73711 22.0078 5.09961 20.4013 5.09961C17.4051 5.09961 14.9571 7.54761 14.9571 10.5694C14.9571 11.0029 15.0081 11.4236 15.0973 11.8189C10.5583 11.5894 6.51659 9.40911 3.82634 6.10686C3.35459 6.91011 3.08684 7.85361 3.08684 8.84811C3.08684 10.7479 4.04309 12.4309 5.52209 13.3871C4.61684 13.3871 3.77534 13.1321 3.03584 12.7496V12.7879C3.03584 15.4399 4.92284 17.6584 7.42184 18.1556C6.61952 18.3752 5.77722 18.4057 4.96109 18.2449C5.30739 19.3318 5.9856 20.2828 6.90039 20.9643C7.81518 21.6459 8.92054 22.0236 10.0611 22.0444C8.12772 23.5749 5.73119 24.4022 3.26534 24.3904C2.83184 24.3904 2.39834 24.3649 1.96484 24.3139C4.38734 25.8694 7.26884 26.7746 10.3543 26.7746C20.4013 26.7746 25.9221 18.4361 25.9221 11.2069C25.9221 10.9646 25.9221 10.7351 25.9093 10.4929C26.9803 9.72786 27.8983 8.75886 28.6378 7.64961Z" fill="white" fill-opacity="0.9"/>
</svg>
