<svg width="31" height="31" viewBox="0 0 31 31" fill="none" xmlns="http://www.w3.org/2000/svg">
<path d="M13.0008 19.1245L19.618 15.2995L13.0008 11.4745V19.1245ZM27.7398 9.14126C27.9055 9.74051 28.0203 10.5438 28.0968 11.5638C28.186 12.5838 28.2243 13.4635 28.2243 14.2285L28.3008 15.2995C28.3008 18.0918 28.0968 20.1445 27.7398 21.4578C27.421 22.6053 26.6815 23.3448 25.534 23.6635C24.9348 23.8293 23.8383 23.944 22.1553 24.0205C20.4978 24.1098 18.9805 24.148 17.578 24.148L15.5508 24.2245C10.2085 24.2245 6.88078 24.0205 5.56753 23.6635C4.42003 23.3448 3.68053 22.6053 3.36178 21.4578C3.19603 20.8585 3.08128 20.0553 3.00478 19.0353C2.91553 18.0153 2.87728 17.1355 2.87728 16.3705L2.80078 15.2995C2.80078 12.5073 3.00478 10.4545 3.36178 9.14126C3.68053 7.99376 4.42003 7.25426 5.56753 6.93551C6.16678 6.76976 7.26328 6.65501 8.94628 6.57851C10.6038 6.48926 12.121 6.45101 13.5235 6.45101L15.5508 6.37451C20.893 6.37451 24.2208 6.57851 25.534 6.93551C26.6815 7.25426 27.421 7.99376 27.7398 9.14126Z" fill="white" fill-opacity="0.9"/>
</svg>
