<svg width="31" height="31" viewBox="0 0 31 31" fill="none" xmlns="http://www.w3.org/2000/svg">
<path d="M16.6083 2.55137C17.5387 2.5478 18.4691 2.55715 19.3993 2.57942L19.6466 2.58835C19.9322 2.59855 20.214 2.6113 20.5544 2.6266C21.911 2.69035 22.8367 2.90455 23.6489 3.21947C24.4904 3.54332 25.1993 3.98192 25.9082 4.69082C26.5563 5.32782 27.058 6.09836 27.3782 6.94885C27.6932 7.76102 27.9074 8.68795 27.9711 10.0445C27.9864 10.3837 27.9992 10.6667 28.0094 10.9523L28.017 11.1997C28.0397 12.1294 28.0494 13.0594 28.0463 13.9894L28.0476 14.9405V16.6108C28.0508 17.5412 28.041 18.4716 28.0183 19.4018L28.0106 19.6491C28.0004 19.9347 27.9877 20.2165 27.9724 20.5569C27.9086 21.9135 27.6919 22.8392 27.3782 23.6513C27.059 24.5027 26.5573 25.2739 25.9082 25.9106C25.2706 26.5588 24.4997 27.0604 23.6489 27.3807C22.8367 27.6956 21.911 27.9098 20.5544 27.9736C20.214 27.9889 19.9322 28.0016 19.6466 28.0118L19.3993 28.0195C18.4691 28.0422 17.5387 28.0519 16.6083 28.0488L15.6572 28.0501H13.9882C13.0578 28.0532 12.1274 28.0435 11.1972 28.0208L10.9499 28.0131C10.6472 28.0022 10.3446 27.9894 10.0421 27.9749C8.68546 27.9111 7.75981 27.6944 6.94636 27.3807C6.09553 27.0611 5.32486 26.5594 4.68834 25.9106C4.03942 25.2735 3.5373 24.5025 3.21699 23.6513C2.90206 22.8392 2.68786 21.9135 2.62411 20.5569C2.60991 20.2544 2.59716 19.9518 2.58586 19.6491L2.57949 19.4018C2.55598 18.4716 2.54535 17.5412 2.54761 16.6108V13.9894C2.54405 13.0594 2.5534 12.1294 2.57566 11.1997L2.58459 10.9523C2.59479 10.6667 2.60754 10.3837 2.62284 10.0445C2.68659 8.68667 2.90079 7.7623 3.21571 6.94885C3.53621 6.09794 4.03931 5.32762 4.68961 4.6921C5.3257 4.04281 6.09589 3.54023 6.94636 3.21947C7.75981 2.90455 8.68419 2.69035 10.0421 2.6266L10.9499 2.58835L11.1972 2.58197C12.1269 2.55848 13.0569 2.54785 13.9869 2.5501L16.6083 2.55137ZM15.2976 8.92637C14.4529 8.91443 13.6143 9.07048 12.8305 9.38546C12.0466 9.70044 11.3332 10.1681 10.7316 10.7612C10.1301 11.3543 9.65242 12.061 9.32639 12.8403C9.00035 13.6196 8.83246 14.456 8.83246 15.3007C8.83246 16.1455 9.00035 16.9818 9.32639 17.7612C9.65242 18.5405 10.1301 19.2472 10.7316 19.8403C11.3332 20.4334 12.0466 20.901 12.8305 21.216C13.6143 21.531 14.4529 21.687 15.2976 21.6751C16.9884 21.6751 18.6099 21.0034 19.8054 19.8079C21.001 18.6124 21.6726 16.9909 21.6726 15.3001C21.6726 13.6093 21.001 11.9878 19.8054 10.7923C18.6099 9.59675 16.9884 8.92637 15.2976 8.92637ZM15.2976 11.4764C15.8057 11.467 16.3106 11.559 16.7827 11.7469C17.2549 11.9349 17.6848 12.215 18.0475 12.571C18.4102 12.927 18.6983 13.3517 18.895 13.8203C19.0916 14.2888 19.193 14.7919 19.1931 15.3001C19.1932 15.8083 19.092 16.3114 18.8954 16.78C18.6989 17.2487 18.411 17.6734 18.0484 18.0295C17.6859 18.3856 17.256 18.6659 16.7839 18.854C16.3118 19.0421 15.807 19.1343 15.2989 19.1251C14.2844 19.1251 13.3115 18.7221 12.5942 18.0048C11.8769 17.2875 11.4739 16.3146 11.4739 15.3001C11.4739 14.2856 11.8769 13.3127 12.5942 12.5954C13.3115 11.8781 14.2844 11.4751 15.2989 11.4751L15.2976 11.4764ZM21.9914 7.01387C21.58 7.03034 21.191 7.20532 20.9058 7.50216C20.6206 7.79901 20.4613 8.19469 20.4613 8.60635C20.4613 9.018 20.6206 9.41369 20.9058 9.71054C21.191 10.0074 21.58 10.1824 21.9914 10.1988C22.414 10.1988 22.8194 10.0309 23.1183 9.73202C23.4172 9.43314 23.5851 9.02776 23.5851 8.60507C23.5851 8.18238 23.4172 7.77701 23.1183 7.47812C22.8194 7.17924 22.414 7.01132 21.9914 7.01132V7.01387Z" fill="white" fill-opacity="0.9"/>
</svg>
