<svg width="24" height="23" viewBox="0 0 24 23" fill="none" xmlns="http://www.w3.org/2000/svg">
<g clip-path="url(#clip0_107_2206)">
<g clip-path="url(#clip1_107_2206)">
<path fill-rule="evenodd" clip-rule="evenodd" d="M3.48932 4.22309C3.22354 4.62288 3.06494 5.10719 3.06494 5.6451V18.5257C3.06494 19.0665 3.2252 19.5531 3.4935 19.954L11.3585 12.0907L3.48932 4.22309ZM4.7285 20.9355C5.3842 21.1859 6.14756 21.1741 6.85127 20.7995L15.4767 16.2079L12.4668 13.1987L4.7285 20.9355ZM16.9231 15.4379L18.9495 14.3592C20.7701 13.39 20.7701 10.7808 18.9495 9.81165L16.9299 8.73654L13.5751 12.0907L16.9231 15.4379ZM15.4835 7.96657L12.4668 10.9826L4.72094 3.23832C5.37836 2.98484 6.14488 2.9953 6.85127 3.37133L15.4835 7.96657Z" fill="white"/>
</g>
</g>
<defs>
<clipPath id="clip0_107_2206">
<rect width="23" height="23" fill="white" transform="translate(0.189941)"/>
</clipPath>
<clipPath id="clip1_107_2206">
<rect width="23" height="23" fill="white" transform="translate(0.189941)"/>
</clipPath>
</defs>
</svg>
