<svg width="27" height="46" viewBox="0 0 27 46" fill="none" xmlns="http://www.w3.org/2000/svg">
<g clip-path="url(#clip0_107_2217)">
<path d="M16.5009 5.36197C16.1409 4.54347 15.8649 3.6906 15.677 2.81644C15.6394 2.63926 15.8171 2.51598 15.9678 2.61628C16.4023 2.90437 17.1696 3.47569 18.0059 4.38679C19.1621 5.81531 20.4033 8.17216 19.9144 10.8989C18.157 8.96883 17.0883 7.03881 16.5009 5.36197ZM22.124 22.342L22.0413 23.4497C22.0214 23.6852 21.8212 23.8651 21.5737 23.8319C21.3332 23.8129 21.1467 23.5898 21.167 23.3623L21.2479 22.2576C19.6961 21.0266 18.7374 19.4686 18.1871 18.128L17.5064 16.2502C17.4644 16.0831 17.4277 15.9378 17.3968 15.8189C17.3544 15.655 17.5007 15.5123 17.6585 15.5741C18.0784 15.7389 18.8174 16.0933 19.6183 16.7733C20.4749 17.6137 21.5781 19.0741 21.7589 21.1508C21.762 21.1508 21.7651 21.149 21.7691 21.149C22.059 19.0829 22.5669 17.4829 23.3081 16.2643C23.6608 15.5528 24.0979 14.8862 24.6098 14.279C24.7265 14.1425 24.9364 14.2097 24.9634 14.3869L25.0562 14.9895C25.1247 15.6276 25.2078 16.4998 25.001 17.4719C24.7238 19.2481 23.9406 21.2586 22.124 22.342Z" fill="#D6DEE6"/>
<path d="M21.914 16.5197C21.9693 16.768 21.7933 16.9881 21.5383 17.0234C21.2974 17.0565 21.0777 16.878 21.022 16.6434L20.8002 15.5489C18.98 14.7134 17.917 13.3361 16.9857 12.1983C16.5947 11.6671 16.2597 11.0969 15.9859 10.4968C15.9108 10.3536 15.8436 10.2299 15.787 10.1274C15.7039 9.97802 15.8104 9.80084 15.9797 9.82337C16.7223 9.9258 17.4331 10.1907 18.0615 10.5993C19.4621 11.4443 20.5218 12.7537 21.0561 14.2994C21.0658 14.298 21.0742 14.2963 21.0835 14.2954C20.9049 12.2819 21.129 10.6686 21.5166 9.36561C21.975 8.00337 22.444 7.11127 22.573 6.87709C22.5951 6.83599 22.6336 6.81965 22.6592 6.85853C23.0159 7.39582 24.6411 12.6468 21.7054 15.4614L21.914 16.5197ZM16.4252 35.6175C16.0438 36.0121 15.3379 36.7266 15.2986 36.6767C15.0944 36.826 14.8089 36.7999 14.6652 36.6099C14.5224 36.4186 14.5494 36.1451 14.7403 36.009C14.7815 36.0488 15.4882 35.3374 15.8453 34.9733C15.0891 30.6984 15.7852 27.441 15.8904 26.4871C15.8997 26.4022 16.05 26.3134 16.1212 26.3611C16.5751 26.6634 17.5727 27.4454 17.9197 28.6632C18.4461 30.0789 18.4881 32.5542 16.6409 34.7299C16.6498 34.7387 16.66 34.744 16.6679 34.7528C16.6825 34.7661 16.6878 34.7846 16.6993 34.7992C18.7692 32.8352 20.493 31.4504 22.0661 30.4037C23.5154 29.5182 24.574 28.9999 24.9612 28.8152C25.0557 28.7701 25.1304 28.8081 25.1044 28.9093C24.9651 29.4448 24.2964 31.1522 22.9386 32.8409C21.4247 34.7113 18.8867 36.1129 16.4252 35.6175Z" fill="#D6DEE6"/>
<path d="M10.2587 39.5452L8.6839 40.1444C8.45141 40.246 8.19107 40.0966 8.12256 39.8779C8.05316 39.634 8.19107 39.4153 8.40986 39.3199L9.94448 38.73C10.4395 36.1809 11.465 34.2089 12.2928 32.8383C12.8113 31.8499 13.267 31.1447 13.564 30.7289C13.7262 30.5018 14.0325 30.5278 14.143 30.7845C14.4814 31.5848 14.6223 32.4547 14.5541 33.3208C14.5797 35.0573 13.4562 37.3934 10.6464 38.8343C10.661 38.855 10.6791 38.8731 10.691 38.8974C13.5729 37.7035 16.0551 37.1751 18.0039 36.6784C18.9756 36.4983 19.9543 36.3583 20.9375 36.2587C21.2822 36.2247 21.4816 36.568 21.2522 36.8274C21.0993 36.9994 20.9374 37.1633 20.7673 37.3183C20.0742 37.917 19.1354 38.7746 17.9208 39.4153C15.5844 40.6242 12.5121 41.0727 10.2587 39.5452Z" fill="#D6DEE6"/>
<path d="M1.03902 40.671L2.68857 40.5561C3.93147 38.2651 5.73483 36.788 7.1479 35.7863C7.81006 35.2843 8.49642 34.8151 9.20453 34.3803C9.47194 34.2168 9.79106 34.3918 9.77338 34.7051C9.76941 34.7735 9.76454 34.8465 9.75747 34.9238C9.71681 35.4761 9.58509 36.282 9.12188 37.0712C8.38329 38.5934 6.49286 40.3643 3.35996 40.8703C3.36571 40.8888 3.37764 40.9061 3.37985 40.9264L3.3803 40.9365C6.52513 40.6918 8.98176 41.0713 10.9862 41.4513C11.9942 41.6787 12.9921 41.9486 13.9772 42.2603C14.2694 42.3536 14.2893 42.6138 14.0113 42.7437C13.232 43.1074 11.712 43.7127 9.88167 43.8877C7.36404 44.0834 4.4738 43.4723 2.76901 41.4133L1.07527 41.5326C1.01803 41.5381 0.960291 41.5318 0.905564 41.5142C0.850837 41.4966 0.800274 41.468 0.756964 41.4302C0.713654 41.3924 0.678505 41.3462 0.653666 41.2944C0.628826 41.2425 0.614816 41.1862 0.612492 41.1287C0.60542 40.8857 0.799016 40.6913 1.03902 40.671ZM20.4822 29.6379L19.8174 31.0677C19.7104 31.2931 19.4488 31.396 19.2291 31.2732C19.009 31.1503 18.9153 30.8768 19.0147 30.6594L19.6525 29.2844C18.3031 27.3084 17.5574 25.2816 17.3126 23.6861C16.9616 22.3526 16.9568 21.3509 16.9625 20.8547C16.9638 20.715 17.123 20.6103 17.2445 20.6779C17.675 20.9183 18.521 21.4799 19.2777 22.5116C20.2846 23.7855 21.1765 26.0323 20.2948 28.7502C20.3275 28.7533 20.3602 28.7519 20.3915 28.7621C21.5659 26.1618 22.7903 24.2304 23.951 22.82C24.5482 22.1252 25.2 21.4792 25.9002 20.8883C26.157 20.6735 26.5026 20.8383 26.4721 21.171C26.4576 21.3292 26.4346 21.5091 26.3988 21.7075C26.2495 22.7245 26.0121 23.7268 25.6894 24.7028C24.7797 26.8369 23.1417 29.1682 20.4822 29.6379Z" fill="#D6DEE6"/>
</g>
<defs>
<clipPath id="clip0_107_2217">
<rect width="26.52" height="45.31" fill="white" transform="translate(0.169922 0.5)"/>
</clipPath>
</defs>
</svg>
