<svg width="25" height="43" viewBox="0 0 25 43" fill="none" xmlns="http://www.w3.org/2000/svg">
<g clip-path="url(#clip0_107_2226)">
<path d="M9.63399 5.04139C9.96233 4.29463 10.2141 3.51651 10.3855 2.71897C10.4198 2.55731 10.2577 2.44484 10.1202 2.53635C9.72389 2.79919 9.024 3.32043 8.26121 4.15169C7.20652 5.455 6.07443 7.60529 6.52033 10.093C8.12332 8.33214 9.09818 6.57127 9.63399 5.04139ZM4.5049 20.5332L4.58029 21.5439C4.59844 21.7588 4.78107 21.9228 5.00684 21.8926C5.22617 21.8753 5.3963 21.6717 5.37776 21.4641L5.30398 20.4563C6.7195 19.3331 7.59397 17.9117 8.09591 16.6886L8.71678 14.9753C8.75509 14.8229 8.78855 14.6903 8.81677 14.5819C8.85547 14.4323 8.72203 14.3021 8.57809 14.3585C8.19509 14.5089 7.52099 14.8322 6.79045 15.4526C6.00912 16.2194 5.00281 17.5517 4.83792 19.4464C4.83509 19.4464 4.83227 19.4448 4.82864 19.4448C4.56417 17.5598 4.10093 16.1 3.42482 14.9882C3.10309 14.339 2.70445 13.7309 2.23749 13.1769C2.13106 13.0524 1.93955 13.1137 1.91496 13.2753L1.83029 13.8252C1.7678 14.4073 1.69201 15.2031 1.88069 16.09C2.13347 17.7105 2.84789 19.5448 4.5049 20.5332Z" fill="#D6DEE6"/>
<path d="M4.69663 15.2212C4.64624 15.4477 4.8067 15.6485 5.03932 15.6808C5.25905 15.711 5.45942 15.5481 5.51022 15.3341L5.71261 14.3355C7.37285 13.5732 8.34247 12.3166 9.19194 11.2786C9.54859 10.7939 9.8542 10.2736 10.1039 9.72613C10.1724 9.59552 10.2337 9.48264 10.2853 9.38911C10.3611 9.25286 10.264 9.0912 10.1095 9.11176C9.43221 9.20521 8.78383 9.44692 8.21063 9.81966C6.9331 10.5906 5.96651 11.7852 5.47918 13.1955C5.47031 13.1943 5.46265 13.1926 5.45418 13.1918C5.61706 11.3548 5.41266 9.88295 5.05908 8.69412C4.641 7.45127 4.21324 6.63735 4.09551 6.42369C4.07535 6.3862 4.04028 6.37129 4.01689 6.40676C3.69154 6.89697 2.20909 11.6878 4.88693 14.2557L4.69663 15.2212ZM9.70316 32.6452C10.0511 33.0052 10.6949 33.6571 10.7308 33.6115C10.9171 33.7478 11.1775 33.724 11.3086 33.5507C11.4388 33.3761 11.4142 33.1266 11.24 33.0024C11.2025 33.0387 10.5579 32.3897 10.2321 32.0575C10.9219 28.1572 10.2869 25.1853 10.191 24.315C10.1825 24.2376 10.0454 24.1565 9.98054 24.2001C9.56648 24.4758 8.65654 25.1894 8.34005 26.3004C7.85988 27.592 7.82158 29.8503 9.50641 31.8354C9.49835 31.8434 9.48907 31.8483 9.48182 31.8563C9.46851 31.8684 9.46368 31.8853 9.45319 31.8986C7.56516 30.1067 5.99281 28.8433 4.55794 27.8883C3.23596 27.0804 2.27038 26.6076 1.9172 26.4391C1.83092 26.3979 1.76279 26.4326 1.78658 26.5249C1.91357 27.0135 2.52356 28.5712 3.76209 30.112C5.14294 31.8184 7.45792 33.0972 9.70316 32.6452Z" fill="#D6DEE6"/>
<path d="M15.328 36.2287L16.7645 36.7753C16.9765 36.868 17.214 36.7318 17.2765 36.5322C17.3398 36.3097 17.214 36.1101 17.0144 36.0231L15.6146 35.4849C15.1631 33.1592 14.2277 31.3601 13.4726 30.1096C12.9997 29.2078 12.584 28.5644 12.3131 28.185C12.1651 27.9778 11.8857 28.0016 11.785 28.2358C11.4764 28.966 11.3478 29.7596 11.41 30.5498C11.3866 32.1341 12.4115 34.2654 14.9744 35.58C14.9611 35.599 14.9446 35.6155 14.9337 35.6377C12.305 34.5484 10.0409 34.0663 8.2633 33.6132C7.37699 33.4488 6.48429 33.3211 5.58748 33.2302C5.27301 33.1991 5.09118 33.5124 5.30042 33.749C5.43987 33.906 5.58749 34.0555 5.7427 34.1969C6.37486 34.7431 7.23119 35.5256 8.33909 36.1101C10.4702 37.2131 13.2726 37.6223 15.328 36.2287Z" fill="#D6DEE6"/>
<path d="M23.7377 37.2559L22.2331 37.1511C21.0994 35.0608 19.4545 33.7132 18.1656 32.7993C17.5616 32.3413 16.9355 31.9132 16.2896 31.5165C16.0457 31.3674 15.7546 31.527 15.7708 31.8128C15.7744 31.8753 15.7788 31.9418 15.7853 32.0124C15.8224 32.5163 15.9425 33.2516 16.365 33.9716C17.0387 35.3604 18.7631 36.9761 21.6207 37.4377C21.6155 37.4546 21.6046 37.4703 21.6026 37.4889L21.6022 37.4981C18.7336 37.2748 16.4928 37.6211 14.6645 37.9678C13.745 38.1753 12.8348 38.4215 11.9362 38.7059C11.6697 38.791 11.6516 39.0284 11.9052 39.1469C12.616 39.4787 14.0025 40.031 15.672 40.1906C17.9684 40.3692 20.6047 39.8117 22.1597 37.9331L23.7047 38.042C23.7569 38.0469 23.8095 38.0412 23.8595 38.0252C23.9094 38.0091 23.9555 37.983 23.995 37.9485C24.0345 37.9141 24.0666 37.8719 24.0892 37.8246C24.1119 37.7773 24.1247 37.7259 24.1268 37.6735C24.1332 37.4518 23.9566 37.2744 23.7377 37.2559ZM6.00283 27.1897L6.60919 28.4943C6.70676 28.6999 6.94543 28.7938 7.14581 28.6817C7.34658 28.5696 7.43205 28.3201 7.34134 28.1218L6.75957 26.8672C7.99044 25.0644 8.67058 23.2153 8.89394 21.7596C9.21405 20.5429 9.21848 19.629 9.21324 19.1763C9.21203 19.0489 9.06689 18.9534 8.95602 19.0151C8.56334 19.2344 7.79168 19.7468 7.10146 20.6881C6.18304 21.8503 5.36945 23.9002 6.17377 26.3798C6.14394 26.3827 6.1141 26.3815 6.08548 26.3907C5.01426 24.0183 3.89749 22.2562 2.83877 20.9694C2.29406 20.3355 1.69951 19.7461 1.06081 19.207C0.826571 19.011 0.511293 19.1614 0.539112 19.465C0.552418 19.6093 0.573381 19.7734 0.606039 19.9544C0.742222 20.8823 0.958729 21.7967 1.25312 22.6872C2.08284 24.6343 3.57697 26.7612 6.00283 27.1897Z" fill="#D6DEE6"/>
</g>
<defs>
<clipPath id="clip0_107_2226">
<rect width="24.19" height="41.55" fill="white" transform="matrix(-1 0 0 1 24.5303 0.5)"/>
</clipPath>
</defs>
</svg>
