<svg width="28" height="46" viewBox="0 0 28 46" fill="none" xmlns="http://www.w3.org/2000/svg">
<g clip-path="url(#clip0_107_2233)">
<path d="M17.161 5.36197C16.801 4.54347 16.525 3.6906 16.3371 2.81644C16.2996 2.63926 16.4772 2.51598 16.628 2.61628C17.0624 2.90437 17.8298 3.47569 18.666 4.38679C19.8223 5.81531 21.0634 8.17216 20.5746 10.8989C18.8172 8.96883 17.7484 7.03881 17.161 5.36197ZM22.7841 22.342L22.7015 23.4497C22.6816 23.6852 22.4814 23.8651 22.2338 23.8319C21.9934 23.8129 21.8069 23.5898 21.8272 23.3623L21.9081 22.2576C20.3562 21.0266 19.3975 19.4686 18.8472 18.128L18.1666 16.2502C18.1246 16.0831 18.0879 15.9378 18.0569 15.8189C18.0145 15.655 18.1608 15.5123 18.3186 15.5741C18.7385 15.7389 19.4775 16.0933 20.2784 16.7733C21.135 17.6137 22.2383 19.0741 22.419 21.1508C22.4221 21.1508 22.4252 21.149 22.4292 21.149C22.7192 19.0829 23.227 17.4829 23.9683 16.2643C24.321 15.5528 24.758 14.8862 25.2699 14.279C25.3866 14.1425 25.5966 14.2097 25.6235 14.3869L25.7164 14.9895C25.7849 15.6276 25.868 16.4998 25.6611 17.4719C25.384 19.2481 24.6008 21.2586 22.7841 22.342Z" fill="#D6DEE6"/>
<path d="M22.5742 16.5197C22.6294 16.768 22.4535 16.9881 22.1985 17.0234C21.9576 17.0565 21.7379 16.878 21.6822 16.6434L21.4603 15.5489C19.6402 14.7134 18.5772 13.3361 17.6459 12.1983C17.2549 11.6671 16.9198 11.0969 16.6461 10.4968C16.5709 10.3536 16.5037 10.2299 16.4472 10.1274C16.3641 9.97802 16.4706 9.80084 16.6399 9.82337C17.3824 9.9258 18.0933 10.1907 18.7217 10.5993C20.1223 11.4443 21.182 12.7537 21.7162 14.2994C21.726 14.298 21.7344 14.2963 21.7436 14.2954C21.5651 12.2819 21.7892 10.6686 22.1768 9.36561C22.6352 8.00337 23.1041 7.11127 23.2332 6.87709C23.2553 6.83599 23.2937 6.81965 23.3194 6.85853C23.6761 7.39582 25.3013 12.6468 22.3655 15.4614L22.5742 16.5197ZM17.0854 35.6175C16.704 36.0121 15.9981 36.7266 15.9587 36.6767C15.7545 36.826 15.469 36.7999 15.3254 36.6099C15.1826 36.4186 15.2096 36.1451 15.4005 36.009C15.4416 36.0488 16.1484 35.3374 16.5055 34.9733C15.7492 30.6984 16.4454 27.441 16.5506 26.4871C16.5599 26.4022 16.7101 26.3134 16.7813 26.3611C17.2352 26.6634 18.2328 27.4454 18.5798 28.6632C19.1062 30.0789 19.1482 32.5542 17.3011 34.7299C17.3099 34.7387 17.3201 34.744 17.3281 34.7528C17.3426 34.7661 17.348 34.7846 17.3594 34.7992C19.4293 32.8352 21.1531 31.4504 22.7262 30.4037C24.1755 29.5182 25.2341 28.9999 25.6213 28.8152C25.7159 28.7701 25.7906 28.8081 25.7645 28.9093C25.6253 29.4448 24.9565 31.1522 23.5987 32.8409C22.0849 34.7113 19.5469 36.1129 17.0854 35.6175Z" fill="#D6DEE6"/>
<path d="M10.9189 39.5452L9.34405 40.1444C9.11156 40.246 8.85122 40.0966 8.78271 39.8779C8.71332 39.634 8.85122 39.4153 9.07001 39.3199L10.6046 38.73C11.0997 36.1809 12.1251 34.2089 12.953 32.8383C13.4715 31.8499 13.9272 31.1447 14.2242 30.7289C14.3864 30.5018 14.6927 30.5278 14.8032 30.7845C15.1415 31.5848 15.2825 32.4547 15.2143 33.3208C15.2399 35.0573 14.1163 37.3934 11.3065 38.8343C11.3211 38.855 11.3392 38.8731 11.3512 38.8974C14.233 37.7035 16.7153 37.1751 18.6641 36.6784C19.6357 36.4983 20.6144 36.3583 21.5976 36.2587C21.9424 36.2247 22.1417 36.568 21.9123 36.8274C21.7595 36.9994 21.5976 37.1633 21.4274 37.3183C20.7344 37.917 19.7956 38.7746 18.581 39.4153C16.2446 40.6242 13.1722 41.0727 10.9189 39.5452Z" fill="#D6DEE6"/>
<path d="M1.69918 40.671L3.34872 40.5561C4.59163 38.2651 6.39499 36.788 7.80806 35.7863C8.47022 35.2843 9.15658 34.8151 9.86469 34.3803C10.1321 34.2168 10.4512 34.3918 10.4335 34.7051C10.4296 34.7735 10.4247 34.8465 10.4176 34.9238C10.377 35.4761 10.2452 36.282 9.78203 37.0712C9.04345 38.5934 7.15302 40.3643 4.02012 40.8703C4.02587 40.8888 4.0378 40.9061 4.04001 40.9264L4.04045 40.9365C7.18528 40.6918 9.64192 41.0713 11.6464 41.4513C12.6544 41.6787 13.6523 41.9486 14.6374 42.2603C14.9296 42.3536 14.9495 42.6138 14.6714 42.7437C13.8922 43.1074 12.3722 43.7127 10.5418 43.8877C8.0242 44.0834 5.13396 43.4723 3.42917 41.4133L1.73542 41.5326C1.67819 41.5381 1.62045 41.5318 1.56572 41.5142C1.51099 41.4966 1.46043 41.468 1.41712 41.4302C1.37381 41.3924 1.33866 41.3462 1.31382 41.2944C1.28898 41.2425 1.27497 41.1862 1.27265 41.1287C1.26558 40.8857 1.45917 40.6913 1.69918 40.671ZM21.1423 29.6379L20.4775 31.0677C20.3706 31.2931 20.1089 31.396 19.8892 31.2732C19.6691 31.1503 19.5754 30.8768 19.6749 30.6594L20.3127 29.2844C18.9633 27.3084 18.2176 25.2816 17.9727 23.6861C17.6218 22.3526 17.6169 21.3509 17.6227 20.8547C17.624 20.715 17.7831 20.6103 17.9047 20.6779C18.3352 20.9183 19.1812 21.4799 19.9379 22.5116C20.9447 23.7855 21.8367 26.0323 20.9549 28.7502C20.9876 28.7533 21.0203 28.7519 21.0517 28.7621C22.2261 26.1618 23.4504 24.2304 24.6111 22.82C25.2083 22.1252 25.8601 21.4792 26.5604 20.8883C26.8172 20.6735 27.1628 20.8383 27.1323 21.171C27.1177 21.3292 27.0947 21.5091 27.0589 21.7075C26.9096 22.7245 26.6723 23.7268 26.3495 24.7028C25.4399 26.8369 23.8018 29.1682 21.1423 29.6379Z" fill="#D6DEE6"/>
</g>
<defs>
<clipPath id="clip0_107_2233">
<rect width="26.52" height="45.31" fill="white" transform="translate(0.830078 0.5)"/>
</clipPath>
</defs>
</svg>
