<svg width="24" height="23" viewBox="0 0 24 23" fill="none" xmlns="http://www.w3.org/2000/svg">
<g clip-path="url(#clip0_107_2222)">
<g clip-path="url(#clip1_107_2222)">
<path fill-rule="evenodd" clip-rule="evenodd" d="M9.5044 6.87121C10.9088 6.80925 11.8247 7.6144 12.7405 7.6144C13.6565 7.6144 14.5113 6.80925 15.9767 6.87121C17.259 6.87121 18.6634 7.36667 19.6403 8.54336C18.236 9.22464 17.1979 10.711 17.1979 12.4451C17.1979 14.303 18.4191 15.8514 20.0067 16.4087C19.335 18.3906 18.236 20.2485 16.7094 21.2395C14.7555 22.2923 13.5954 20.4343 12.7405 20.4343C11.8247 20.4343 10.7256 22.2923 8.77165 21.2395C6.45139 19.7531 5.04702 16.3468 4.74172 13.4979C4.19219 8.60531 7.06199 6.87121 9.5044 6.87121ZM12.4963 6.56152C12.4353 3.65073 13.9617 2.28822 16.5873 1.91663C16.0988 5.07515 14.8777 6.06607 12.4963 6.56152Z" fill="white"/>
</g>
</g>
<defs>
<clipPath id="clip0_107_2222">
<rect width="23" height="23" fill="white" transform="translate(0.839844)"/>
</clipPath>
<clipPath id="clip1_107_2222">
<rect width="23" height="23" fill="white" transform="translate(0.839844)"/>
</clipPath>
</defs>
</svg>
