<svg width="25" height="43" viewBox="0 0 25 43" fill="none" xmlns="http://www.w3.org/2000/svg">
<g clip-path="url(#clip0_107_2210)">
<path d="M9.97383 5.04139C10.3022 4.29463 10.554 3.51651 10.7253 2.71897C10.7596 2.55731 10.5975 2.44484 10.4601 2.53635C10.0637 2.79919 9.36384 3.32043 8.60105 4.15169C7.54637 5.455 6.41427 7.60529 6.86018 10.093C8.46317 8.33214 9.43802 6.57127 9.97383 5.04139ZM4.84475 20.5332L4.92014 21.5439C4.93828 21.7588 5.12091 21.9228 5.34669 21.8926C5.56601 21.8753 5.73615 21.6717 5.7176 21.4641L5.64382 20.4563C7.05934 19.3331 7.93381 17.9117 8.43575 16.6886L9.05663 14.9753C9.09493 14.8229 9.12839 14.6903 9.15661 14.5819C9.19532 14.4323 9.06187 14.3021 8.91794 14.3585C8.53493 14.5089 7.86084 14.8322 7.1303 15.4526C6.34896 16.2194 5.34266 17.5517 5.17776 19.4464C5.17494 19.4464 5.17212 19.4448 5.16849 19.4448C4.90401 17.5598 4.44077 16.1 3.76466 14.9882C3.44293 14.339 3.04429 13.7309 2.57734 13.1769C2.4709 13.0524 2.2794 13.1137 2.2548 13.2753L2.17014 13.8252C2.10765 14.4073 2.03185 15.2031 2.22053 16.09C2.47332 17.7105 3.18773 19.5448 4.84475 20.5332Z" fill="#D6DEE6"/>
<path d="M5.03648 15.2212C4.98608 15.4477 5.14654 15.6485 5.37917 15.6808C5.59889 15.711 5.79927 15.5481 5.85007 15.3341L6.05246 14.3355C7.7127 13.5732 8.68231 12.3166 9.53179 11.2786C9.88844 10.7939 10.194 10.2736 10.4437 9.72613C10.5123 9.59552 10.5736 9.48264 10.6252 9.38911C10.701 9.25286 10.6038 9.0912 10.4494 9.11176C9.77206 9.20521 9.12368 9.44692 8.55048 9.81966C7.27295 10.5906 6.30635 11.7852 5.81902 13.1955C5.81015 13.1943 5.80249 13.1926 5.79403 13.1918C5.9569 11.3548 5.7525 9.88295 5.39892 8.69412C4.98084 7.45127 4.55308 6.63735 4.43535 6.42369C4.4152 6.3862 4.38012 6.37129 4.35674 6.40676C4.03138 6.89697 2.54894 11.6878 5.22677 14.2557L5.03648 15.2212ZM10.043 32.6452C10.3909 33.0052 11.0348 33.6571 11.0707 33.6115C11.2569 33.7478 11.5174 33.724 11.6484 33.5507C11.7786 33.3761 11.754 33.1266 11.5799 33.0024C11.5424 33.0387 10.8977 32.3897 10.572 32.0575C11.2618 28.1572 10.6268 25.1853 10.5308 24.315C10.5224 24.2376 10.3853 24.1565 10.3204 24.2001C9.90633 24.4758 8.99638 25.1894 8.67989 26.3004C8.19972 27.592 8.16142 29.8503 9.84626 31.8354C9.83819 31.8434 9.82892 31.8483 9.82166 31.8563C9.80836 31.8684 9.80352 31.8853 9.79304 31.8986C7.90501 30.1067 6.33266 28.8433 4.89779 27.8883C3.5758 27.0804 2.61022 26.6076 2.25704 26.4391C2.17077 26.3979 2.10263 26.4326 2.12642 26.5249C2.25342 27.0135 2.86341 28.5712 4.10194 30.112C5.48278 31.8184 7.79776 33.0972 10.043 32.6452Z" fill="#D6DEE6"/>
<path d="M15.6678 36.2287L17.1043 36.7753C17.3164 36.868 17.5538 36.7318 17.6163 36.5322C17.6796 36.3097 17.5538 36.1101 17.3543 36.0231L15.9545 35.4849C15.5029 33.1592 14.5676 31.3601 13.8125 30.1096C13.3395 29.2078 12.9239 28.5644 12.6529 28.185C12.505 27.9778 12.2256 28.0016 12.1248 28.2358C11.8162 28.966 11.6876 29.7596 11.7499 30.5498C11.7265 32.1341 12.7513 34.2654 15.3143 35.58C15.3009 35.599 15.2844 35.6155 15.2735 35.6377C12.6449 34.5484 10.3807 34.0663 8.60314 33.6132C7.71683 33.4488 6.82414 33.3211 5.92732 33.2302C5.61285 33.1991 5.43102 33.5124 5.64027 33.749C5.77971 33.906 5.92734 34.0555 6.08254 34.1969C6.71471 34.7431 7.57103 35.5256 8.67894 36.1101C10.8101 37.2131 13.6125 37.6223 15.6678 36.2287Z" fill="#D6DEE6"/>
<path d="M24.0776 37.2559L22.573 37.1511C21.4392 35.0608 19.7943 33.7132 18.5054 32.7993C17.9014 32.3413 17.2754 31.9132 16.6295 31.5165C16.3856 31.3674 16.0945 31.527 16.1106 31.8128C16.1142 31.8753 16.1187 31.9418 16.1251 32.0124C16.1622 32.5163 16.2823 33.2516 16.7049 33.9716C17.3786 35.3604 19.1029 36.9761 21.9605 37.4377C21.9553 37.4546 21.9444 37.4703 21.9424 37.4889L21.942 37.4981C19.0735 37.2748 16.8327 37.6211 15.0043 37.9678C14.0849 38.1753 13.1747 38.4215 12.2761 38.7059C12.0096 38.791 11.9914 39.0284 12.245 39.1469C12.9558 39.4787 14.3423 40.031 16.0118 40.1906C18.3083 40.3692 20.9446 39.8117 22.4996 37.9331L24.0445 38.042C24.0967 38.0469 24.1494 38.0412 24.1993 38.0252C24.2492 38.0091 24.2953 37.983 24.3348 37.9485C24.3744 37.9141 24.4064 37.8719 24.4291 37.8246C24.4517 37.7773 24.4645 37.7259 24.4666 37.6735C24.4731 37.4518 24.2965 37.2744 24.0776 37.2559ZM6.34267 27.1897L6.94903 28.4943C7.0466 28.6999 7.28527 28.7938 7.48565 28.6817C7.68643 28.5696 7.7719 28.3201 7.68118 28.1218L7.09941 26.8672C8.33028 25.0644 9.01042 23.2153 9.23378 21.7596C9.55389 20.5429 9.55833 19.629 9.55309 19.1763C9.55188 19.0489 9.40674 18.9534 9.29587 19.0151C8.90318 19.2344 8.13152 19.7468 7.4413 20.6881C6.52289 21.8503 5.7093 23.9002 6.51361 26.3798C6.48378 26.3827 6.45395 26.3815 6.42532 26.3907C5.35411 24.0183 4.23733 22.2562 3.17862 20.9694C2.63391 20.3355 2.03935 19.7461 1.40065 19.207C1.16641 19.011 0.851137 19.1614 0.878956 19.465C0.892262 19.6093 0.913225 19.7734 0.945883 19.9544C1.08207 20.8823 1.29857 21.7967 1.59296 22.6872C2.42268 24.6343 3.91682 26.7612 6.34267 27.1897Z" fill="#D6DEE6"/>
</g>
<defs>
<clipPath id="clip0_107_2210">
<rect width="24.19" height="41.55" fill="white" transform="matrix(-1 0 0 1 24.8701 0.5)"/>
</clipPath>
</defs>
</svg>
